<svg width="29" height="29" xmlns="http://www.w3.org/2000/svg" xmlns:xlink="http://www.w3.org/1999/xlink" xml:space="preserve" overflow="hidden"><g transform="translate(-23 -47)"><path d="M29.9479 71.7708 29.9479 51.2292 37.5 51.2292 37.5 57.5729 45.0521 57.5729 45.0521 71.7708 29.9479 71.7708ZM39.3125 51.9844 43.0885 55.7604 39.3125 55.7604 39.3125 51.9844ZM39.3125 49.4167 28.1354 49.4167 28.1354 73.5833 46.8646 73.5833 46.8646 56.0625 39.3125 49.4167Z"/><path d="M31.7604 60.5938 43.2396 60.5938 43.2396 61.8021 31.7604 61.8021Z"/><path d="M31.7604 58.1771 35.6875 58.1771 35.6875 59.3854 31.7604 59.3854Z"/><path d="M31.7604 63.0104 43.2396 63.0104 43.2396 64.2188 31.7604 64.2188Z"/><path d="M31.7604 65.4271 43.2396 65.4271 43.2396 66.6354 31.7604 66.6354Z"/><path d="M31.7604 67.8438 43.2396 67.8438 43.2396 69.0521 31.7604 69.0521Z"/></g></svg>