<svg width="33" height="34" xmlns="http://www.w3.org/2000/svg" xmlns:xlink="http://www.w3.org/1999/xlink" xml:space="preserve" overflow="hidden"><g transform="translate(-110 -252)"><path d="M16.4952 3.4375C9.28496 3.4375 3.43991 9.28256 3.43991 16.4928 3.43991 23.703 9.28496 29.5481 16.4952 29.5481 23.7054 29.5481 29.5505 23.703 29.5505 16.4928 29.5505 16.4923 29.5505 16.4919 29.5505 16.4914 29.5529 9.28441 23.7125 3.43998 16.5055 3.4375 16.5021 3.4375 16.4986 3.4375 16.4952 3.4375ZM22.8955 17.655 17.6574 17.655 17.6574 22.8917 15.333 22.8917 15.333 17.6536 10.0949 17.6536 10.0949 15.3292 15.333 15.3292 15.333 10.0911 17.6574 10.0911 17.6574 15.3292 22.8955 15.3292Z" transform="matrix(1 0 0 1.0303 110 252)" fill="#228B22"/></g></svg>